<?xml version="1.0" encoding="utf-8"?>
<!-- Generator: Adobe Illustrator 19.2.1, SVG Export Plug-In . SVG Version: 6.00 Build 0)  -->
<svg version="1.1" id="Layer_1" xmlns="http://www.w3.org/2000/svg" xmlns:xlink="http://www.w3.org/1999/xlink" x="0px" y="0px"
	 viewBox="0 0 50 50" style="enable-background:new 0 0 50 50;" xml:space="preserve">
<style type="text/css">
	.st0{fill:none;stroke:#FFFFFF;stroke-width:2;stroke-miterlimit:10;}
</style>
<g>
	<polyline class="st0" points="19.2,39.5 19.2,10.5 42.4,4.8 42.4,33.8 	"/>
	<line class="st0" x1="19.2" y1="16.3" x2="42.4" y2="10.6"/>
	<path class="st0" d="M19.2,39.7c0,2.4-2.6,4.8-5.8,5.4c-3.2,0.6-5.8-0.9-5.8-3.3s2.6-4.8,5.8-5.4C16.6,35.8,19.2,37.3,19.2,39.7z"
		/>
	<path class="st0" d="M42.4,33.7c0,2.4-2.6,4.8-5.8,5.4c-3.2,0.6-5.8-0.9-5.8-3.3s2.6-4.8,5.8-5.4S42.4,31.3,42.4,33.7z"/>
</g>
</svg>
