<?xml version="1.0" encoding="utf-8"?>
<!-- Generator: Adobe Illustrator 19.2.1, SVG Export Plug-In . SVG Version: 6.00 Build 0)  -->
<svg version="1.1" id="Layer_1" xmlns="http://www.w3.org/2000/svg" xmlns:xlink="http://www.w3.org/1999/xlink" x="0px" y="0px"
	 viewBox="0 0 300 300" style="enable-background:new 0 0 300 300;" xml:space="preserve">
<style type="text/css">
	.st0{fill:none;stroke:#FFFFFF;stroke-width:6;stroke-miterlimit:10;}
	.st1{fill:none;stroke:#FFFFFF;stroke-width:6;stroke-linejoin:round;stroke-miterlimit:10;}
	.st2{fill:none;stroke:#FFFFFF;stroke-width:4;stroke-miterlimit:10;}
</style>
<path class="st0" d="M150,196L150,196c-22,0-40-18-40-40V76c0-22,18-40,40-40h0c22,0,40,18,40,40v80C190,178,172,196,150,196z"/>
<path class="st0" d="M210,116v40.1c0,32.9-27,59.9-60,59.9h0c-33,0-60-26.9-60-59.9V116"/>
<line class="st0" x1="150" y1="217.2" x2="150" y2="248.5"/>
<path class="st0" d="M190,268.1L190,268.1c0-11.1-9.1-20.3-20.2-20.3h-39.5c-11.1,0-20.2,9.1-20.2,20.2v0"/>
</svg>
